<?xml version="1.0" encoding="UTF-8"?>
<!-- Created with Inkscape (http://www.inkscape.org/) -->
<svg width="300" height="240" version="1.1" viewBox="0 0 79.375 63.5" xmlns="http://www.w3.org/2000/svg">
 <g fill-opacity=".6">
  <g stroke-width="2">
   <rect transform="rotate(90)" x="31.485" y="-71.438" width=".52917" height="31.75" ry=".26458"/>
   <rect transform="rotate(-30)" x="18.231" y="15.59" width=".52917" height="31.75" ry=".26458"/>
   <rect transform="rotate(210)" x="-50.51" y="-39.403" width=".52917" height="31.75" ry=".26458"/>
   <rect transform="rotate(210)" x="-78.006" y="-23.528" width=".52917" height="31.75" ry=".26458"/>
   <rect transform="rotate(-30)" x="45.727" y="31.465" width=".52917" height="31.75" ry=".26458"/>
   <rect transform="rotate(-30)" x="31.979" y="23.528" width=".52917" height="31.75" ry=".26458"/>
   <rect transform="rotate(210)" x="-64.258" y="-31.465" width=".52917" height="31.75" ry=".26458"/>
  </g>
  <g stroke-width=".70711">
   <rect transform="rotate(-30)" x="20.98" y="44.959" width=".52917" height="3.9688" ry=".26458"/>
   <rect transform="rotate(-30)" x="23.73" y="46.546" width=".52917" height="3.9688" ry=".26458"/>
   <rect transform="rotate(-30)" x="26.48" y="48.134" width=".52917" height="3.9688" ry=".26458"/>
   <rect transform="rotate(-30)" x="29.229" y="49.721" width=".52917" height="3.9688" ry=".26458"/>
   <rect transform="rotate(-30)" x="34.729" y="52.896" width=".52917" height="3.9688" ry=".26458"/>
   <rect transform="rotate(-30)" x="37.478" y="54.484" width=".52917" height="3.9688" ry=".26458"/>
   <rect transform="rotate(-30)" x="40.228" y="56.071" width=".52917" height="3.9688" ry=".26458"/>
   <rect transform="rotate(-30)" x="42.977" y="57.659" width=".52917" height="3.9688" ry=".26458"/>
   <rect transform="rotate(210)" x="-53.26" y="-10.034" width=".52917" height="3.9688" ry=".26458"/>
   <rect transform="rotate(210)" x="-56.009" y="-8.4463" width=".52917" height="3.9688" ry=".26458"/>
   <rect transform="rotate(210)" x="-58.759" y="-6.8588" width=".52917" height="3.9688" ry=".26458"/>
   <rect transform="rotate(210)" x="-61.508" y="-5.2713" width=".52917" height="3.9688" ry=".26458"/>
   <rect transform="rotate(210)" x="-67.008" y="-2.0963" width=".52917" height="3.9688" ry=".26458"/>
   <rect transform="rotate(210)" x="-69.757" y="-.50881" width=".52917" height="3.9688" ry=".26458"/>
   <rect transform="rotate(210)" x="-72.507" y="1.0787" width=".52917" height="3.9688" ry=".26458"/>
   <rect transform="rotate(210)" x="-75.257" y="2.6662" width=".52917" height="3.9688" ry=".26458"/>
   <rect transform="rotate(-30)" x="20.98" y="17.178" width=".52917" height="3.9688" ry=".26458"/>
   <rect transform="rotate(-30)" x="23.73" y="18.765" width=".52917" height="3.9688" ry=".26458"/>
   <rect transform="rotate(-30)" x="26.48" y="20.353" width=".52917" height="3.9688" ry=".26458"/>
   <rect transform="rotate(-30)" x="29.229" y="21.94" width=".52917" height="3.9688" ry=".26458"/>
   <rect transform="rotate(-30)" x="34.729" y="25.115" width=".52917" height="3.9688" ry=".26458"/>
   <rect transform="rotate(-30)" x="37.478" y="26.703" width=".52917" height="3.9688" ry=".26458"/>
   <rect transform="rotate(-30)" x="40.228" y="28.29" width=".52917" height="3.9688" ry=".26458"/>
   <rect transform="rotate(-30)" x="42.977" y="29.878" width=".52917" height="3.9688" ry=".26458"/>
   <rect transform="rotate(210)" x="-53.26" y="-37.815" width=".52917" height="3.9688" ry=".26458"/>
   <rect transform="rotate(210)" x="-56.009" y="-36.228" width=".52917" height="3.9688" ry=".26458"/>
   <rect transform="rotate(210)" x="-58.759" y="-34.64" width=".52917" height="3.9688" ry=".26458"/>
   <rect transform="rotate(210)" x="-61.508" y="-33.053" width=".52917" height="3.9688" ry=".26458"/>
   <rect transform="rotate(210)" x="-67.008" y="-29.878" width=".52917" height="3.9688" ry=".26458"/>
   <rect transform="rotate(210)" x="-69.757" y="-28.29" width=".52917" height="3.9688" ry=".26458"/>
   <rect transform="rotate(210)" x="-72.507" y="-26.703" width=".52917" height="3.9688" ry=".26458"/>
   <rect transform="rotate(210)" x="-75.257" y="-25.115" width=".52917" height="3.9688" ry=".26458"/>
  </g>
  <g stroke-width="2">
   <rect transform="rotate(90)" x="3.9891" y="-55.563" width=".52917" height="31.75" ry=".26458"/>
   <rect transform="rotate(210)" x="-23.014" y="-23.528" width=".52917" height="31.75" ry=".26458"/>
   <rect transform="rotate(210)" x="-36.762" y="-31.465" width=".52917" height="31.75" ry=".26458"/>
   <rect transform="rotate(90)" x="17.737" y="-63.5" width=".52917" height="31.75" ry=".26458"/>
  </g>
  <g stroke-width=".70711">
   <rect transform="rotate(210)" x="-47.76" y="-10.034" width=".52917" height="3.9688" ry=".26458"/>
   <rect transform="rotate(210)" x="-45.011" y="-8.4463" width=".52917" height="3.9688" ry=".26458"/>
   <rect transform="rotate(210)" x="-42.261" y="-6.8588" width=".52917" height="3.9688" ry=".26458"/>
   <rect transform="rotate(210)" x="-39.511" y="-5.2713" width=".52917" height="3.9688" ry=".26458"/>
   <rect transform="rotate(210)" x="-34.012" y="-2.0963" width=".52917" height="3.9688" ry=".26458"/>
   <rect transform="rotate(210)" x="-31.263" y="-.5088" width=".52917" height="3.9688" ry=".26458"/>
   <rect transform="rotate(210)" x="-28.513" y="1.0787" width=".52917" height="3.9688" ry=".26458"/>
   <rect transform="rotate(210)" x="-25.763" y="2.6662" width=".52917" height="3.9688" ry=".26458"/>
   <rect transform="rotate(90)" x="28.736" y="-42.069" width=".52917" height="3.9688" ry=".26458"/>
   <rect transform="rotate(90)" x="25.986" y="-40.481" width=".52917" height="3.9688" ry=".26458"/>
   <rect transform="rotate(90)" x="23.237" y="-38.894" width=".52917" height="3.9688" ry=".26458"/>
   <rect transform="rotate(90)" x="20.487" y="-37.306" width=".52917" height="3.9688" ry=".26458"/>
   <rect transform="rotate(90)" x="14.988" y="-34.131" width=".52917" height="3.9688" ry=".26458"/>
   <rect transform="rotate(90)" x="12.238" y="-32.544" width=".52917" height="3.9688" ry=".26458"/>
   <rect transform="rotate(90)" x="9.4884" y="-30.956" width=".52917" height="3.9688" ry=".26458"/>
   <rect transform="rotate(90)" x="6.7387" y="-29.369" width=".52917" height="3.9688" ry=".26458"/>
   <rect transform="rotate(210)" x="-47.76" y="-37.815" width=".52917" height="3.9688" ry=".26458"/>
   <rect transform="rotate(210)" x="-45.011" y="-36.228" width=".52917" height="3.9688" ry=".26458"/>
   <rect transform="rotate(210)" x="-42.261" y="-34.64" width=".52917" height="3.9688" ry=".26458"/>
   <rect transform="rotate(210)" x="-39.511" y="-33.053" width=".52917" height="3.9688" ry=".26458"/>
   <rect transform="rotate(210)" x="-34.012" y="-29.878" width=".52917" height="3.9688" ry=".26458"/>
   <rect transform="rotate(210)" x="-31.263" y="-28.29" width=".52917" height="3.9688" ry=".26458"/>
   <rect transform="rotate(210)" x="-28.513" y="-26.703" width=".52917" height="3.9688" ry=".26458"/>
   <rect transform="rotate(210)" x="-25.763" y="-25.115" width=".52917" height="3.9688" ry=".26458"/>
   <rect transform="rotate(90)" x="28.736" y="-69.85" width=".52917" height="3.9688" ry=".26458"/>
   <rect transform="rotate(90)" x="25.986" y="-68.262" width=".52917" height="3.9688" ry=".26458"/>
   <rect transform="rotate(90)" x="23.237" y="-66.675" width=".52917" height="3.9688" ry=".26458"/>
   <rect transform="rotate(90)" x="20.487" y="-65.087" width=".52917" height="3.9688" ry=".26458"/>
   <rect transform="rotate(90)" x="14.988" y="-61.912" width=".52917" height="3.9688" ry=".26458"/>
   <rect transform="rotate(90)" x="12.238" y="-60.325" width=".52917" height="3.9688" ry=".26458"/>
   <rect transform="rotate(90)" x="9.4884" y="-58.737" width=".52917" height="3.9688" ry=".26458"/>
   <rect transform="rotate(90)" x="6.7387" y="-57.15" width=".52917" height="3.9688" ry=".26458"/>
  </g>
  <g stroke-width="2">
   <rect transform="rotate(-30)" x="-9.2655" y="31.465" width=".52917" height="31.75" ry=".26458"/>
   <rect transform="rotate(90)" x="58.982" y="-55.563" width=".52917" height="31.75" ry=".26458"/>
   <rect transform="rotate(90)" x="45.234" y="-63.5" width=".52917" height="31.75" ry=".26458"/>
   <rect transform="rotate(-30)" x="4.4827" y="23.528" width=".52917" height="31.75" ry=".26458"/>
  </g>
  <g stroke-width=".70711">
   <rect transform="rotate(90)" x="34.235" y="-42.069" width=".52917" height="3.9688" ry=".26458"/>
   <rect transform="rotate(90)" x="36.985" y="-40.481" width=".52917" height="3.9688" ry=".26458"/>
   <rect transform="rotate(90)" x="39.734" y="-38.894" width=".52917" height="3.9688" ry=".26458"/>
   <rect transform="rotate(90)" x="42.484" y="-37.306" width=".52917" height="3.9688" ry=".26458"/>
   <rect transform="rotate(90)" x="47.983" y="-34.131" width=".52917" height="3.9688" ry=".26458"/>
   <rect transform="rotate(90)" x="50.733" y="-32.544" width=".52917" height="3.9688" ry=".26458"/>
   <rect transform="rotate(90)" x="53.482" y="-30.956" width=".52917" height="3.9688" ry=".26458"/>
   <rect transform="rotate(90)" x="56.232" y="-29.369" width=".52917" height="3.9688" ry=".26458"/>
   <rect transform="rotate(-30)" x="15.481" y="44.959" width=".52917" height="3.9688" ry=".26458"/>
   <rect transform="rotate(-30)" x="12.732" y="46.546" width=".52917" height="3.9688" ry=".26458"/>
   <rect transform="rotate(-30)" x="9.9819" y="48.134" width=".52917" height="3.9688" ry=".26458"/>
   <rect transform="rotate(-30)" x="7.2323" y="49.721" width=".52917" height="3.9688" ry=".26458"/>
   <rect transform="rotate(-30)" x="1.733" y="52.896" width=".52917" height="3.9688" ry=".26458"/>
   <rect transform="rotate(-30)" x="-1.0166" y="54.484" width=".52917" height="3.9688" ry=".26458"/>
   <rect transform="rotate(-30)" x="-3.7663" y="56.071" width=".52917" height="3.9688" ry=".26458"/>
   <rect transform="rotate(-30)" x="-6.5159" y="57.659" width=".52917" height="3.9688" ry=".26458"/>
   <rect transform="rotate(90)" x="34.235" y="-69.85" width=".52917" height="3.9688" ry=".26458"/>
   <rect transform="rotate(90)" x="36.985" y="-68.262" width=".52917" height="3.9688" ry=".26458"/>
   <rect transform="rotate(90)" x="39.734" y="-66.675" width=".52917" height="3.9688" ry=".26458"/>
   <rect transform="rotate(90)" x="42.484" y="-65.088" width=".52917" height="3.9688" ry=".26458"/>
   <rect transform="rotate(90)" x="47.983" y="-61.913" width=".52917" height="3.9688" ry=".26458"/>
   <rect transform="rotate(90)" x="50.733" y="-60.325" width=".52917" height="3.9688" ry=".26458"/>
   <rect transform="rotate(90)" x="53.482" y="-58.738" width=".52917" height="3.9688" ry=".26458"/>
   <rect transform="rotate(90)" x="56.232" y="-57.15" width=".52917" height="3.9688" ry=".26458"/>
   <rect transform="rotate(-30)" x="15.481" y="17.178" width=".52917" height="3.9688" ry=".26458"/>
   <rect transform="rotate(-30)" x="12.732" y="18.765" width=".52917" height="3.9688" ry=".26458"/>
   <rect transform="rotate(-30)" x="9.9819" y="20.353" width=".52917" height="3.9688" ry=".26458"/>
   <rect transform="rotate(-30)" x="7.2323" y="21.94" width=".52917" height="3.9688" ry=".26458"/>
   <rect transform="rotate(-30)" x="1.733" y="25.115" width=".52917" height="3.9688" ry=".26458"/>
   <rect transform="rotate(-30)" x="-1.0166" y="26.703" width=".52917" height="3.9688" ry=".26458"/>
   <rect transform="rotate(-30)" x="-3.7663" y="28.29" width=".52917" height="3.9688" ry=".26458"/>
   <rect transform="rotate(-30)" x="-6.5159" y="29.878" width=".52917" height="3.9688" ry=".26458"/>
  </g>
 </g>
</svg>
