<?xml version="1.0" encoding="UTF-8" standalone="no"?>
<!-- Created with Inkscape (http://www.inkscape.org/) -->

<svg
   width="240"
   height="280"
   version="1.1"
   viewBox="0 0 63.5 74.083333"
   id="svg192"
   sodipodi:docname="dial.svg"
   inkscape:version="1.2.2 (b0a8486541, 2022-12-01)"
   xmlns:inkscape="http://www.inkscape.org/namespaces/inkscape"
   xmlns:sodipodi="http://sodipodi.sourceforge.net/DTD/sodipodi-0.dtd"
   xmlns="http://www.w3.org/2000/svg"
   xmlns:svg="http://www.w3.org/2000/svg">
  <defs
     id="defs196" />
  <sodipodi:namedview
     id="namedview194"
     pagecolor="#ffffff"
     bordercolor="#666666"
     borderopacity="1.0"
     inkscape:showpageshadow="2"
     inkscape:pageopacity="0.0"
     inkscape:pagecheckerboard="0"
     inkscape:deskcolor="#d1d1d1"
     showgrid="false"
     inkscape:zoom="1.7708333"
     inkscape:cx="-28.517648"
     inkscape:cy="132.70588"
     inkscape:window-width="1920"
     inkscape:window-height="1029"
     inkscape:window-x="0"
     inkscape:window-y="27"
     inkscape:window-maximized="1"
     inkscape:current-layer="svg192"
     showguides="true" />
  <path
     style="color:#000000;fill:none;fill-opacity:0.303388;stroke:#999999;stroke-width:0.13229167;stroke-dasharray:none;stroke-opacity:1"
     d="m 31.75,7.578125 c -2.021259,0 -4.006715,0.2065123 -5.927734,0.5996094 l 3.447265,16.8476566 c 0.795372,-0.162757 1.621013,-0.248047 2.480469,-0.248047 0.859456,0 1.685097,0.08529 2.480469,0.248047 L 37.677734,8.1777344 C 35.756715,7.7846373 33.771259,7.578125 31.75,7.578125 Z m -16.478516,5.037109 c -1.566529,1.058328 -3.024962,2.263246 -4.355468,3.59375 C 9.5855111,17.53949 8.3825464,18.99597 7.3242187,20.5625 l 14.2500003,9.626953 c 0.441437,-0.653412 0.946592,-1.262998 1.503906,-1.820312 0.557314,-0.557314 1.166901,-1.06247 1.820312,-1.503907 z m 32.957032,0 -9.626954,14.25 c 0.653412,0.441437 1.262999,0.946593 1.820313,1.503907 0.557314,0.557314 1.062469,1.1669 1.503906,1.820312 l 14.25,-9.626953 C 55.117454,18.99597 53.914489,17.53949 52.583984,16.208984 51.253478,14.87848 49.795045,13.673562 48.228516,12.615234 Z M 2.8847656,31.113281 c -0.393097,1.92102 -0.5976562,3.906476 -0.5976562,5.927735 0,2.021259 0.2045592,4.008667 0.5976562,5.929687 L 19.734375,39.523437 c -0.162756,-0.795371 -0.25,-1.622965 -0.25,-2.482421 0,-0.859457 0.08724,-1.685098 0.25,-2.480469 z m 57.7304684,0 -16.849609,3.447266 c 0.162756,0.795371 0.25,1.621012 0.25,2.480469 0,0.859456 -0.08724,1.68705 -0.25,2.482421 l 16.849609,3.447266 c 0.393097,-1.92102 0.597657,-3.908428 0.597657,-5.929687 0,-2.021259 -0.20456,-4.006715 -0.597657,-5.927735 z M 21.574219,43.892578 7.3242187,53.521484 c 1.0583277,1.56653 2.2612924,3.02301 3.5917973,4.353516 1.330506,1.330505 2.788939,2.533469 4.355468,3.591797 l 9.626953,-14.25 C 24.245026,46.77536 23.635439,46.272157 23.078125,45.714844 22.520811,45.15753 22.015656,44.54599 21.574219,43.892578 Z m 20.351562,0 c -0.441437,0.653412 -0.946592,1.264952 -1.503906,1.822266 -0.557314,0.557313 -1.166901,1.060516 -1.820313,1.501953 l 9.626954,14.25 c 1.566529,-1.058328 3.024962,-2.261292 4.355468,-3.591797 1.330505,-1.330506 2.53347,-2.786986 3.591797,-4.353516 z m -12.65625,5.164063 -3.447265,16.849609 c 1.921019,0.393097 3.906475,0.597656 5.927734,0.597656 2.021259,0 4.006715,-0.204559 5.927734,-0.597656 L 34.230469,49.056641 c -0.795372,0.162756 -1.621013,0.25 -2.480469,0.25 -0.859456,0 -1.685097,-0.08724 -2.480469,-0.25 z"
     id="path28390" />
  <path
     id="path14105"
     style="fill:none;fill-opacity:0.296118;stroke:#000000;stroke-width:1.05833333;stroke-linecap:square;stroke-linejoin:bevel;stroke-dasharray:none;stroke-opacity:1"
     d="m 46.706249,51.64331 c -0.05839,0.0598 -0.117144,0.119258 -0.176246,0.17836 -0.0591,0.0591 -0.118556,0.117852 -0.178359,0.176246 M 32.020156,57.94201 c -0.08992,0.0011 -0.179969,0.0017 -0.270156,0.0017 -0.09019,0 -0.18024,-5.75e-4 -0.270157,-0.0017 M 17.148356,51.997914 c -0.0598,-0.05839 -0.119257,-0.117142 -0.178359,-0.176244 -0.0591,-0.0591 -0.117852,-0.118557 -0.176246,-0.17836 M 10.849655,37.311822 c -0.0011,-0.08992 -0.0017,-0.17997 -0.0017,-0.270156 0,-0.09019 5.75e-4,-0.18024 0.0017,-0.270157 m 5.944112,-14.331486 c 0.05839,-0.0598 0.117144,-0.119258 0.176246,-0.17836 0.0591,-0.0591 0.118556,-0.117852 0.178359,-0.176246 m 14.331487,-5.944095 c 0.08992,-0.0011 0.17997,-0.0017 0.270157,-0.0017 0.09019,0 0.18024,5.75e-4 0.270156,0.0017 m 14.331488,5.944111 c 0.0598,0.05839 0.119257,0.117144 0.178359,0.176246 0.0591,0.0591 0.117852,0.118556 0.176246,0.178359 m 5.944093,14.331487 c 0.0011,0.08992 0.0017,0.17997 0.0017,0.270157 0,0.09019 -5.75e-4,0.18024 -0.0017,0.270157"
     sodipodi:nodetypes="csccsccsccsccsccsccsccsc" />
  <path
     id="path14107"
     style="fill:none;fill-opacity:0.296118;stroke:#000000;stroke-width:2.64583;stroke-linecap:butt;stroke-linejoin:bevel;stroke-dasharray:none;stroke-opacity:1"
     d="m 45.00322,49.98065 c -0.05175,0.05299 -0.103803,0.105672 -0.156171,0.158045 -0.05236,0.05236 -0.10506,0.104427 -0.158044,0.156171 m -12.699141,5.267063 c -0.07967,9.73e-4 -0.159473,0.0015 -0.239388,0.0015 -0.07991,0 -0.159709,-5.11e-4 -0.239386,-0.0015 M 18.811949,50.294865 c -0.05299,-0.05174 -0.105672,-0.103792 -0.158044,-0.15617 -0.05236,-0.05236 -0.104426,-0.10506 -0.156172,-0.158045 M 13.230665,37.281517 c -9.74e-4,-0.07967 -0.0015,-0.159472 -0.0015,-0.239387 0,-0.07991 5.08e-4,-0.159709 0.0015,-0.239385 m 5.267082,-12.699132 c 0.05174,-0.05299 0.103792,-0.105672 0.156173,-0.158045 0.05236,-0.05236 0.10506,-0.104425 0.158044,-0.15617 m 12.699141,-5.267066 c 0.07967,-9.73e-4 0.159472,-0.0015 0.239386,-0.0015 0.07991,0 0.159711,5.07e-4 0.239386,0.0015 m 12.699143,5.26708 c 0.05299,0.05174 0.105671,0.103802 0.158044,0.156171 0.05236,0.05236 0.104427,0.10506 0.156171,0.158044 M 50.2703,36.802759 c 9.76e-4,0.07967 0.0015,0.159473 0.0015,0.239386 0,0.07991 -5.11e-4,0.159712 -0.0015,0.239388"
     sodipodi:nodetypes="csccsccsccsccsccsccsccsc" />
  <path
     id="path14125"
     style="fill:none;fill-opacity:0.296118;stroke:#000000;stroke-width:2.64583333;stroke-linecap:butt;stroke-linejoin:bevel;stroke-dasharray:none;stroke-opacity:1"
     d="m 48.315627,53.14838 c -0.06468,0.06624 -0.12975,0.132088 -0.195208,0.197553 -0.06544,0.06544 -0.131325,0.130532 -0.197554,0.195211 m -15.873604,6.583695 c -0.09958,0.0012 -0.199337,0.0019 -0.299229,0.0019 -0.09988,0 -0.199633,-6.39e-4 -0.299227,-0.0019 M 15.577199,53.541143 c -0.06625,-0.06468 -0.132087,-0.129738 -0.197552,-0.19521 -0.06545,-0.06545 -0.130529,-0.131321 -0.195211,-0.197553 M 8.6007351,37.274786 c -0.00125,-0.09958 -0.00188,-0.199336 -0.00188,-0.299227 0,-0.09988 6.354e-4,-0.199635 0.00188,-0.299225 M 15.184453,20.802737 c 0.06468,-0.06625 0.129737,-0.132086 0.195213,-0.197552 0.06545,-0.06545 0.131322,-0.130528 0.19755,-0.195208 m 15.873608,-6.583702 c 0.09958,-0.0012 0.199337,-0.0019 0.299227,-0.0019 0.09988,0 0.199634,6.36e-4 0.299225,0.0019 m 15.873608,6.583719 c 0.06625,0.06467 0.132087,0.12975 0.197553,0.19521 0.06544,0.06545 0.130528,0.131322 0.195208,0.197551 m 6.5837,15.873594 c 0.0012,0.09958 0.0018,0.199338 0.0018,0.299229 0,0.09988 -6.4e-4,0.199633 -0.0018,0.299228"
     sodipodi:nodetypes="csccsccsccsccsccsccsccsc" />
  <path
     id="path14129"
     style="fill:none;fill-opacity:0.296118;stroke:#000000;stroke-width:1.98324;stroke-linecap:butt;stroke-linejoin:bevel;stroke-dasharray:none;stroke-opacity:0.79723775"
     d="m 49.406517,51.499819 c -0.05793,0.07014 -0.116023,0.140834 -0.174688,0.210747 -0.05893,0.07023 -0.117769,0.139462 -0.177212,0.208631 m -15.021965,7.82879 c -0.09769,0.0098 -0.195572,0.01912 -0.293662,0.0277 -0.0981,0.0086 -0.196095,0.01652 -0.294012,0.02372 M 17.291742,54.698138 c -0.07065,-0.05787 -0.140855,-0.11602 -0.210758,-0.174686 -0.06993,-0.05896 -0.139462,-0.11777 -0.208661,-0.17721 M 9.0435081,39.324274 c -0.00979,-0.09779 -0.018964,-0.195535 -0.027547,-0.293635 -0.00856,-0.0979 -0.016523,-0.196053 -0.023861,-0.293958 M 14.093455,22.58351 c 0.05783,-0.07014 0.116052,-0.140836 0.174729,-0.210751 0.05862,-0.07021 0.117738,-0.139459 0.17722,-0.208633 m 15.021967,-7.828799 c 0.09769,-0.0098 0.195573,-0.01912 0.293663,-0.0277 0.0981,-0.0086 0.196094,-0.01653 0.29401,-0.02371 m 16.153211,5.101336 c 0.07015,0.05793 0.140833,0.116023 0.210749,0.174689 0.07023,0.05893 0.13946,0.117768 0.208629,0.177212 m 7.828809,15.021917 c 0.0098,0.09779 0.01901,0.195532 0.0276,0.293631 0.0086,0.0979 0.01652,0.196053 0.02381,0.293963"
     sodipodi:nodetypes="csccsccsccsccsccsccsccsc" />
  <path
     id="path14131"
     style="fill:none;fill-opacity:0.296118;stroke:#000000;stroke-width:1.98324;stroke-linecap:butt;stroke-linejoin:bevel;stroke-dasharray:none;stroke-opacity:0.79723775"
     d="m 50.599441,49.905934 c -0.0516,0.07492 -0.103307,0.15041 -0.155656,0.22517 -0.05259,0.0751 -0.105166,0.149196 -0.158354,0.223282 m -14.282478,9.10825 c -0.09646,0.01828 -0.193161,0.03609 -0.29013,0.05319 -0.09698,0.01712 -0.193909,0.03355 -0.290826,0.04925 m -16.536373,-3.67401 c -0.07542,-0.05149 -0.150431,-0.103302 -0.225181,-0.155652 -0.0748,-0.05264 -0.149196,-0.105167 -0.223312,-0.15835 M 9.3288565,41.294589 c -0.018276,-0.09657 -0.035934,-0.193139 -0.053034,-0.290117 -0.01706,-0.09678 -0.033547,-0.193867 -0.04939,-0.29076 m 3.674101,-16.536316 c 0.0515,-0.07491 0.103336,-0.150414 0.155696,-0.225177 0.05228,-0.07505 0.105135,-0.14919 0.158362,-0.223285 M 27.49707,14.620675 c 0.09646,-0.01828 0.193163,-0.03609 0.290132,-0.05319 0.09698,-0.01712 0.193907,-0.03356 0.290824,-0.04924 M 44.61438,18.19232 c 0.07493,0.0516 0.150409,0.103308 0.225172,0.155657 0.0751,0.05259 0.149194,0.105165 0.22328,0.158354 m 9.108265,14.282429 c 0.01829,0.09656 0.03598,0.193131 0.05309,0.290108 0.0171,0.09678 0.03355,0.193867 0.04934,0.290769"
     sodipodi:nodetypes="csccsccsccsccsccsccsccsc" />
  <path
     id="path14133"
     style="fill:none;fill-opacity:0.296118;stroke:#000000;stroke-width:1.98324;stroke-linecap:butt;stroke-linejoin:bevel;stroke-dasharray:none;stroke-opacity:0.79723775"
     d="m 51.64891,48.214147 c -0.04487,0.07913 -0.0898,0.158841 -0.135439,0.237879 -0.04584,0.0794 -0.09176,0.157794 -0.138291,0.236234 M 37.940887,59.00665 c -0.0945,0.02662 -0.18928,0.05279 -0.28439,0.07827 -0.09512,0.02551 -0.190247,0.05032 -0.285427,0.07441 M 20.577412,56.940545 c -0.07962,-0.04472 -0.158862,-0.0898 -0.23789,-0.135434 -0.0791,-0.04592 -0.157794,-0.09176 -0.236263,-0.138285 M 9.7848443,43.232539 c -0.026623,-0.09461 -0.05263,-0.189272 -0.078117,-0.284391 -0.02543,-0.09493 -0.050316,-0.190206 -0.074544,-0.285349 M 11.851068,25.86919 c 0.04478,-0.07911 0.08983,-0.158848 0.135478,-0.23789 0.04554,-0.07932 0.09173,-0.157786 0.138299,-0.236238 M 25.559138,15.076663 c 0.0945,-0.02662 0.189282,-0.05279 0.284392,-0.07827 0.09512,-0.02551 0.190244,-0.05033 0.285425,-0.0744 M 42.9226,17.142845 c 0.07914,0.04487 0.158841,0.08981 0.237882,0.135439 0.0794,0.04584 0.157792,0.09176 0.236232,0.138292 m 10.318401,13.434242 c 0.02664,0.0946 0.05268,0.18926 0.07817,0.284377 0.02547,0.09492 0.05032,0.190205 0.07449,0.285362"
     sodipodi:nodetypes="csccsccsccsccsccsccsccsc" />
  <path
     id="path14135"
     style="fill:none;fill-opacity:0.296118;stroke:#000000;stroke-width:1.98324;stroke-linecap:butt;stroke-linejoin:bevel;stroke-dasharray:none;stroke-opacity:0.79723775"
     d="m 52.546937,46.437333 c -0.0378,0.08274 -0.07561,0.166063 -0.114191,0.248778 -0.03874,0.08309 -0.07766,0.165191 -0.117175,0.247388 M 39.831706,58.3835 c -0.09182,0.03476 -0.183959,0.06909 -0.276486,0.102758 -0.09253,0.0337 -0.185137,0.06671 -0.277856,0.099 M 22.354231,57.838584 c -0.08321,-0.03761 -0.166084,-0.07561 -0.248788,-0.114186 -0.0828,-0.03885 -0.165191,-0.07766 -0.247417,-0.117167 M 10.408001,45.123375 c -0.03477,-0.09193 -0.06893,-0.183965 -0.102606,-0.276501 -0.03361,-0.09235 -0.0667,-0.185096 -0.09913,-0.277766 m 0.746782,-16.923093 c 0.03771,-0.08271 0.07564,-0.166072 0.114229,-0.248792 0.03845,-0.08299 0.07763,-0.16518 0.117183,-0.247393 M 23.668323,15.69982 c 0.09182,-0.03476 0.18396,-0.06909 0.276488,-0.102758 0.09253,-0.0337 0.185133,-0.06672 0.277854,-0.09899 m 16.923126,0.746746 c 0.08275,0.0378 0.166064,0.07562 0.248781,0.114191 0.08309,0.03875 0.165189,0.07766 0.247386,0.117177 m 11.450008,12.483813 c 0.03478,0.09192 0.06897,0.183948 0.102657,0.276482 0.03365,0.09234 0.06671,0.185095 0.09908,0.277783"
     sodipodi:nodetypes="csccsccsccsccsccsccsccsc" />
  <path
     id="path14137"
     style="fill:none;fill-opacity:0.296118;stroke:#000000;stroke-width:1.98324;stroke-linecap:butt;stroke-linejoin:bevel;stroke-dasharray:none;stroke-opacity:0.79723775"
     d="m 53.286688,44.589015 c -0.03045,0.08572 -0.06085,0.172021 -0.09207,0.257783 -0.03135,0.08615 -0.06297,0.171331 -0.09517,0.25666 m -11.438427,12.49447 c -0.08844,0.04263 -0.177237,0.08486 -0.266478,0.126465 -0.08924,0.04164 -0.178618,0.08259 -0.26817,0.12284 m -16.923812,0.731115 c -0.08617,-0.03021 -0.172042,-0.06085 -0.257793,-0.09207 -0.08587,-0.03149 -0.171331,-0.06297 -0.256688,-0.09516 M 11.193584,46.952707 c -0.04265,-0.08855 -0.0847,-0.177257 -0.126314,-0.266506 -0.04153,-0.08907 -0.08258,-0.178578 -0.122962,-0.268069 M 10.213304,29.49435 c 0.03036,-0.08568 0.06088,-0.172033 0.09211,-0.257801 0.03107,-0.08603 0.06294,-0.171318 0.09517,-0.256665 m 11.438425,-12.49448 c 0.08844,-0.04263 0.177238,-0.08486 0.26648,-0.126464 0.08924,-0.04164 0.178613,-0.0826 0.268169,-0.12283 m 16.923812,-0.731043 c 0.08573,0.03044 0.172022,0.06086 0.257786,0.09207 0.08615,0.03136 0.171329,0.06297 0.256658,0.09517 m 12.494473,11.438375 c 0.04266,0.08854 0.08474,0.177237 0.126363,0.266483 0.04157,0.08905 0.08259,0.178576 0.122914,0.26809"
     sodipodi:nodetypes="csccsccsccsccsccsccsccsc" />
  <path
     id="path14139"
     style="fill:none;fill-opacity:0.296118;stroke:#000000;stroke-width:1.98324;stroke-linecap:butt;stroke-linejoin:bevel;stroke-dasharray:none;stroke-opacity:0.79723775"
     d="m 53.862468,42.68324 c -0.02286,0.08805 -0.04563,0.17667 -0.06925,0.264826 -0.02372,0.08855 -0.0478,0.176168 -0.07244,0.263978 m -10.305936,13.44385 c -0.08439,0.05018 -0.169166,0.09998 -0.254441,0.149209 -0.08527,0.04926 -0.170741,0.09784 -0.256444,0.145745 m -16.795691,2.20334 c -0.08847,-0.02258 -0.17669,-0.04562 -0.264836,-0.06925 -0.08829,-0.02389 -0.176167,-0.0478 -0.264005,-0.07243 M 12.13555,48.706593 c -0.05021,-0.0845 -0.09983,-0.1692 -0.149061,-0.254483 -0.04914,-0.08511 -0.09783,-0.170701 -0.145858,-0.256332 M 9.6374043,31.400108 c 0.022777,-0.088 0.045655,-0.176685 0.069291,-0.264848 0.023454,-0.08841 0.047769,-0.176152 0.072438,-0.263983 M 20.085066,17.427418 c 0.08439,-0.05018 0.169167,-0.09999 0.254443,-0.149209 0.08527,-0.04926 0.170735,-0.09785 0.256444,-0.145735 M 37.39165,14.929206 c 0.08806,0.02285 0.176672,0.04564 0.264829,0.06925 0.08856,0.02373 0.176166,0.0478 0.263976,0.07244 M 51.364303,25.37678 c 0.05022,0.08449 0.09987,0.169177 0.149108,0.254456 0.04917,0.08509 0.09784,0.170698 0.145812,0.256357"
     sodipodi:nodetypes="csccsccsccsccsccsccsccsc" />
  <path
     id="path14141"
     style="fill:none;fill-opacity:0.296118;stroke:#000000;stroke-width:1.98324;stroke-linecap:butt;stroke-linejoin:bevel;stroke-dasharray:none;stroke-opacity:0.79723775"
     d="m 54.269973,40.734532 c -0.0151,0.08971 -0.03006,0.179975 -0.04591,0.269854 -0.01591,0.09028 -0.03226,0.179663 -0.04916,0.269287 M 45.0799,55.564586 c -0.0797,0.05734 -0.159808,0.114344 -0.240468,0.170818 -0.08065,0.0565 -0.161564,0.112348 -0.242766,0.16754 m -16.539744,3.658797 c -0.0901,-0.01478 -0.179994,-0.03005 -0.269864,-0.0459 -0.09004,-0.0161 -0.179663,-0.03226 -0.269313,-0.04914 M 13.226808,50.371705 c -0.05738,-0.0798 -0.114197,-0.159856 -0.170673,-0.240523 -0.05637,-0.0805 -0.112336,-0.161525 -0.167644,-0.242645 M 9.229809,33.348804 c 0.015021,-0.08965 0.030082,-0.179992 0.045944,-0.269879 0.015659,-0.09012 0.032234,-0.179645 0.049155,-0.269292 M 18.419914,18.51871 c 0.0797,-0.05734 0.159809,-0.114353 0.24047,-0.170817 0.08065,-0.0565 0.161557,-0.112358 0.242767,-0.167531 m 16.539757,-3.658725 c 0.08972,0.01509 0.179977,0.03007 0.269856,0.0459 0.09029,0.01592 0.179662,0.03226 0.269286,0.04916 m 14.290907,9.094959 c 0.05739,0.07979 0.114234,0.159829 0.170717,0.240492 0.0564,0.08048 0.112345,0.161521 0.167601,0.242673"
     sodipodi:nodetypes="csccsccsccsccsccsccsccsc" />
  <path
     id="path14143"
     style="fill:none;fill-opacity:0.296118;stroke:#000000;stroke-width:1.98324;stroke-linecap:butt;stroke-linejoin:bevel;stroke-dasharray:none;stroke-opacity:0.79723775"
     d="m 54.506101,38.757721 c -0.0072,0.09069 -0.01426,0.18191 -0.02222,0.272828 -0.008,0.09132 -0.01648,0.181791 -0.0255,0.272547 M 46.643523,54.33231 c -0.0744,0.06407 -0.149234,0.127837 -0.224665,0.191126 -0.07542,0.06331 -0.151157,0.126002 -0.22724,0.188061 m -16.15792,5.086408 c -0.09105,-0.0069 -0.181928,-0.01425 -0.272838,-0.0222 -0.0911,-0.0082 -0.181791,-0.01648 -0.272571,-0.02548 m -15.029236,-7.81485 c -0.06412,-0.07449 -0.127695,-0.149295 -0.190987,-0.224732 -0.06317,-0.07528 -0.125986,-0.15112 -0.188154,-0.227111 M 8.9936197,35.325607 c 0.00715,-0.09062 0.01428,-0.181929 0.022248,-0.272856 0.00774,-0.09114 0.016454,-0.181771 0.025498,-0.272552 m 7.814861,-15.029224 c 0.0744,-0.06407 0.149234,-0.127846 0.224667,-0.191125 0.07542,-0.06331 0.15115,-0.126011 0.227242,-0.188052 m 16.157939,-5.086337 c 0.09069,0.0072 0.181913,0.01427 0.27283,0.02221 0.09133,0.008 0.18179,0.01648 0.272546,0.0255 m 15.029203,7.814815 c 0.06413,0.07449 0.12773,0.149265 0.191028,0.224698 0.0632,0.07526 0.125995,0.151115 0.188114,0.227142"
     sodipodi:nodetypes="csccsccsccsccsccsccsccsc" />
  <path
     id="path14145"
     style="fill:none;fill-opacity:0.296118;stroke:#000000;stroke-width:1.98438;stroke-linecap:butt;stroke-linejoin:bevel;stroke-dasharray:none;stroke-opacity:0.80402583"
     d="m 46.335685,48.985241 c -0.04784,0.05795 -0.09584,0.116338 -0.144306,0.174092 -0.04869,0.05803 -0.09728,0.115206 -0.14639,0.172343 m -12.409235,6.467151 c -0.08067,0.0082 -0.16156,0.01574 -0.242591,0.02283 -0.08103,0.0071 -0.161989,0.01365 -0.242869,0.01964 M 19.806545,51.627285 c -0.05837,-0.0478 -0.116356,-0.09584 -0.174101,-0.144304 -0.05776,-0.04871 -0.115206,-0.09729 -0.17237,-0.146389 m -6.46717,-12.409238 c -0.0082,-0.08076 -0.01564,-0.161528 -0.02273,-0.242567 -0.0071,-0.08086 -0.01365,-0.161954 -0.01974,-0.242827 m 4.21409,-13.343694 c 0.04776,-0.05794 0.09587,-0.116341 0.144337,-0.174096 0.04843,-0.05799 0.09726,-0.115203 0.146399,-0.172344 M 29.8645,18.284668 c 0.08069,-0.0082 0.161562,-0.01574 0.242592,-0.02283 0.08103,-0.0071 0.161987,-0.01365 0.242869,-0.01964 m 13.343727,4.214073 c 0.05795,0.04785 0.116339,0.09584 0.174094,0.144306 0.05802,0.04869 0.115204,0.09729 0.172343,0.146389 m 6.467164,12.409198 c 0.0082,0.08076 0.01564,0.161529 0.02273,0.242565 0.0071,0.08086 0.01365,0.161955 0.01974,0.242829"
     sodipodi:nodetypes="csccsccsccsccsccsccsccsc" />
  <path
     id="path14147"
     style="fill:none;fill-opacity:0.296118;stroke:#000000;stroke-width:1.98438;stroke-linecap:butt;stroke-linejoin:bevel;stroke-dasharray:none;stroke-opacity:0.80402583"
     d="m 47.321126,47.668575 c -0.04261,0.0619 -0.08534,0.124248 -0.128583,0.186006 -0.04345,0.06205 -0.08687,0.123246 -0.130813,0.184446 m -11.798364,7.524078 c -0.07965,0.0152 -0.159574,0.02976 -0.239678,0.04389 -0.0801,0.01413 -0.160183,0.02772 -0.240233,0.04073 M 21.123207,52.612732 c -0.06231,-0.04253 -0.124266,-0.08533 -0.186015,-0.128581 -0.06179,-0.04349 -0.123247,-0.08688 -0.184473,-0.130809 M 13.228622,40.554976 c -0.01521,-0.07974 -0.02966,-0.15955 -0.04378,-0.239663 -0.01412,-0.07993 -0.02771,-0.160148 -0.04083,-0.240183 m 3.035075,-13.660199 c 0.04253,-0.06188 0.08536,-0.124254 0.128614,-0.186013 0.04319,-0.06199 0.08685,-0.123242 0.130821,-0.184448 m 11.798369,-7.524085 c 0.07967,-0.0152 0.159575,-0.02976 0.239679,-0.04389 0.0801,-0.01414 0.160181,-0.02772 0.240233,-0.04073 m 13.660231,3.035055 c 0.0619,0.04262 0.124249,0.08534 0.186009,0.128583 0.06204,0.04345 0.123245,0.08688 0.184445,0.130811 m 7.524088,11.798327 c 0.01521,0.07974 0.02966,0.159551 0.04378,0.239661 0.01412,0.07993 0.02771,0.160149 0.04083,0.240185"
     sodipodi:nodetypes="csccsccsccsccsccsccsccsc" />
  <path
     id="path14149"
     style="fill:none;fill-opacity:0.296118;stroke:#000000;stroke-width:1.98438;stroke-linecap:butt;stroke-linejoin:bevel;stroke-dasharray:none;stroke-opacity:0.80402583"
     d="m 48.188063,46.271032 c -0.03705,0.06538 -0.07419,0.131213 -0.111882,0.196505 -0.03788,0.0656 -0.0758,0.130348 -0.11424,0.195145 M 36.86424,55.186424 c -0.07802,0.02208 -0.156373,0.04355 -0.234941,0.06461 -0.07856,0.02106 -0.157157,0.04158 -0.235769,0.06151 M 22.520746,53.479674 c -0.06578,-0.03694 -0.13123,-0.07417 -0.196513,-0.111879 -0.06535,-0.03794 -0.13035,-0.07581 -0.195172,-0.114233 M 13.6053,42.15586 c -0.0221,-0.07811 -0.04345,-0.156358 -0.0645,-0.234935 -0.02103,-0.0784 -0.04156,-0.157124 -0.06161,-0.235711 m 1.832961,-13.872742 c 0.03697,-0.06535 0.07421,-0.13122 0.111912,-0.196514 0.03762,-0.06552 0.07578,-0.130343 0.114248,-0.195148 m 11.097705,-8.523749 c 0.07804,-0.02209 0.156374,-0.04356 0.234942,-0.06461 0.07856,-0.02107 0.157155,-0.04157 0.235769,-0.06151 M 40.9795,20.603874 c 0.06538,0.03706 0.131214,0.07419 0.196508,0.111882 0.06559,0.03788 0.130348,0.07581 0.195144,0.114237 M 49.8949,31.927657 c 0.0221,0.07811 0.04345,0.156359 0.0645,0.234933 0.02103,0.0784 0.04156,0.157125 0.06161,0.235713"
     sodipodi:nodetypes="csccsccsccsccsccsccsccsc" />
  <path
     id="path14151"
     style="fill:none;fill-opacity:0.296118;stroke:#000000;stroke-width:1.98438;stroke-linecap:butt;stroke-linejoin:bevel;stroke-dasharray:none;stroke-opacity:0.80402583"
     d="m 48.929896,44.803249 c -0.03121,0.06836 -0.06247,0.13718 -0.09433,0.205508 -0.03202,0.06865 -0.06415,0.136459 -0.0968,0.204359 m -10.312578,9.458535 c -0.0758,0.0288 -0.151982,0.05701 -0.228416,0.08484 -0.07643,0.02783 -0.152935,0.05512 -0.229511,0.08183 M 23.988525,54.221514 c -0.06875,-0.03107 -0.137195,-0.06245 -0.205516,-0.09433 -0.06841,-0.0321 -0.136461,-0.06416 -0.204385,-0.09679 M 14.12007,43.717823 c -0.02882,-0.07589 -0.05691,-0.151976 -0.08473,-0.22842 -0.02778,-0.07627 -0.0551,-0.152904 -0.08192,-0.229444 m 0.616897,-13.979705 c 0.03113,-0.06832 0.06249,-0.137189 0.09436,-0.20552 0.03177,-0.06855 0.06413,-0.136452 0.0968,-0.204363 m 10.312581,-9.458542 c 0.07582,-0.02881 0.151983,-0.05702 0.228417,-0.08484 0.07642,-0.02784 0.152934,-0.05511 0.229511,-0.08182 m 13.979734,0.616866 c 0.06836,0.03122 0.13718,0.06247 0.205511,0.09433 0.06864,0.03202 0.136459,0.06416 0.204358,0.0968 m 9.458537,10.31254 c 0.02882,0.07589 0.05691,0.151977 0.08473,0.228418 0.02778,0.07627 0.0551,0.152905 0.08192,0.229446"
     sodipodi:nodetypes="csccsccsccsccsccsccsccsc" />
  <path
     id="path14153"
     style="fill:none;fill-opacity:0.296118;stroke:#000000;stroke-width:1.98438;stroke-linecap:butt;stroke-linejoin:bevel;stroke-dasharray:none;stroke-opacity:0.80402583"
     d="m 49.540981,43.276396 c -0.02513,0.07082 -0.05028,0.142103 -0.07606,0.212948 -0.02592,0.07118 -0.05201,0.14153 -0.07862,0.212018 m -9.44897,10.321342 c -0.073,0.0353 -0.146435,0.07004 -0.220152,0.104425 -0.07371,0.03439 -0.147549,0.06824 -0.221506,0.101522 m -13.980297,0.603955 c -0.0712,-0.02496 -0.142116,-0.05026 -0.212956,-0.07606 -0.07095,-0.02602 -0.141533,-0.05202 -0.212043,-0.07861 M 14.769016,45.228977 c -0.03532,-0.07309 -0.06994,-0.146438 -0.104316,-0.220166 -0.03432,-0.07356 -0.06822,-0.14752 -0.101605,-0.221431 M 13.959233,30.807105 c 0.02506,-0.07077 0.0503,-0.142113 0.07609,-0.212962 0.02567,-0.07106 0.05199,-0.141522 0.07862,-0.212022 m 9.448972,-10.32135 c 0.07302,-0.03531 0.146435,-0.07005 0.220153,-0.104425 0.0737,-0.03439 0.147549,-0.06823 0.221507,-0.101511 m 13.9803,-0.603896 c 0.07082,0.02514 0.142103,0.05028 0.212951,0.07606 0.07117,0.02591 0.141531,0.05202 0.212017,0.07862 m 10.321341,9.448932 c 0.03533,0.07309 0.06994,0.146439 0.104316,0.220164 0.03432,0.07356 0.06822,0.147521 0.101606,0.221433"
     sodipodi:nodetypes="csccsccsccsccsccsccsccsc" />
  <path
     id="path14155"
     style="fill:none;fill-opacity:0.296118;stroke:#000000;stroke-width:1.98438;stroke-linecap:butt;stroke-linejoin:bevel;stroke-dasharray:none;stroke-opacity:0.80402583"
     d="m 50.016608,41.702088 c -0.01886,0.07274 -0.0377,0.145944 -0.05721,0.218766 -0.01962,0.07317 -0.03948,0.145525 -0.05984,0.218064 m -8.513449,11.105598 c -0.06965,0.04153 -0.139774,0.08254 -0.210213,0.123215 -0.07043,0.04068 -0.14104,0.08084 -0.211815,0.120441 m -13.87446,1.82012 c -0.0731,-0.01866 -0.145955,-0.03768 -0.218774,-0.05721 -0.07295,-0.01974 -0.145529,-0.03949 -0.218088,-0.05983 M 15.547139,46.677815 c -0.04156,-0.06973 -0.08244,-0.139785 -0.123108,-0.210237 -0.0406,-0.07029 -0.08082,-0.141013 -0.120517,-0.211733 M 13.483489,32.3814 c 0.0188,-0.07268 0.03772,-0.145957 0.05724,-0.218784 0.01938,-0.07303 0.03946,-0.145514 0.05984,-0.218067 m 8.513451,-11.105606 c 0.06967,-0.04154 0.139772,-0.08255 0.210214,-0.123216 0.07042,-0.04068 0.141041,-0.08083 0.211817,-0.12043 M 36.41052,18.775236 c 0.07274,0.01887 0.145944,0.0377 0.218769,0.05721 0.07316,0.01961 0.145527,0.03949 0.218063,0.05984 M 47.952946,27.4057 c 0.04157,0.06973 0.08244,0.139787 0.123107,0.210235 0.0406,0.07029 0.08082,0.141014 0.120519,0.211735"
     sodipodi:nodetypes="csccsccsccsccsccsccsccsc" />
  <path
     id="path14157"
     style="fill:none;fill-opacity:0.296118;stroke:#000000;stroke-width:1.98438;stroke-linecap:butt;stroke-linejoin:bevel;stroke-dasharray:none;stroke-opacity:0.80402583"
     d="m 50.35323,40.092314 c -0.01245,0.07411 -0.02484,0.148675 -0.03793,0.22292 -0.01317,0.0746 -0.02665,0.148412 -0.04061,0.222449 m -7.513136,11.805334 c -0.06577,0.04744 -0.132049,0.09441 -0.198675,0.141068 -0.06662,0.04666 -0.133457,0.09282 -0.200511,0.138443 m -13.66303,3.022433 c -0.07445,-0.01222 -0.148684,-0.02482 -0.222928,-0.03793 -0.07439,-0.01331 -0.148417,-0.02666 -0.222472,-0.0406 M 16.448591,48.053319 c -0.04748,-0.06584 -0.09431,-0.132068 -0.140963,-0.198707 -0.04657,-0.06648 -0.0928,-0.133433 -0.138512,-0.200424 M 13.146779,33.991165 c 0.01239,-0.07404 0.02486,-0.148689 0.03795,-0.22294 0.01294,-0.07444 0.02663,-0.148399 0.04061,-0.222453 M 20.738477,21.74043 c 0.06578,-0.04745 0.132045,-0.09442 0.198675,-0.141068 0.06661,-0.04666 0.133459,-0.09281 0.200515,-0.138433 M 34.80071,18.438554 c 0.07411,0.01246 0.148675,0.02484 0.222923,0.03793 0.07459,0.01316 0.148415,0.02666 0.222449,0.04061 m 11.805327,7.513101 c 0.04749,0.06584 0.09431,0.13207 0.140961,0.198706 0.04657,0.06648 0.0928,0.133433 0.138515,0.200425"
     sodipodi:nodetypes="csccsccsccsccsccsccsccsc" />
  <path
     id="path14159"
     style="fill:none;fill-opacity:0.296118;stroke:#000000;stroke-width:1.98438;stroke-linecap:butt;stroke-linejoin:bevel;stroke-dasharray:none;stroke-opacity:0.80402583"
     d="m 50.548285,38.459324 c -0.0059,0.07491 -0.01179,0.150275 -0.01836,0.225378 -0.0066,0.07546 -0.01361,0.15017 -0.02107,0.225142 m -6.455643,12.415224 c -0.06138,0.05299 -0.123318,0.10556 -0.185624,0.157847 -0.0623,0.05229 -0.12486,0.104098 -0.187682,0.155392 M 30.332295,55.84005 c -0.07523,-0.0057 -0.150281,-0.01177 -0.225386,-0.01836 -0.07527,-0.0068 -0.150175,-0.01362 -0.225163,-0.02106 M 17.466511,49.345019 c -0.05304,-0.06145 -0.105462,-0.123345 -0.157745,-0.185665 -0.05219,-0.06217 -0.104077,-0.124837 -0.155453,-0.187589 M 12.951666,35.624148 c 0.0059,-0.07484 0.01181,-0.15029 0.01838,-0.225399 0.0064,-0.07529 0.01359,-0.150155 0.02107,-0.225146 m 6.455645,-12.415232 c 0.06139,-0.053 0.123313,-0.105569 0.185624,-0.157847 0.06229,-0.05229 0.124862,-0.104089 0.187687,-0.155382 m 13.347633,-4.201687 c 0.07491,0.006 0.150275,0.01179 0.225381,0.01836 0.07545,0.0066 0.150174,0.01362 0.225142,0.02107 m 12.415214,6.45561 c 0.05305,0.06145 0.105462,0.123347 0.157743,0.185664 0.05219,0.06217 0.104076,0.124837 0.155456,0.18759"
     sodipodi:nodetypes="csccsccsccsccsccsccsccsc" />
  <path
     id="path14161"
     style="fill:none;fill-opacity:0.296118;stroke:#000000;stroke-width:1.05833333;stroke-linecap:square;stroke-linejoin:bevel;stroke-dasharray:none;stroke-opacity:1"
     d="m 51.15558,44.80832 c -0.03106,0.07759 -0.06259,0.155009 -0.09457,0.232229 -0.03198,0.07722 -0.06443,0.154251 -0.09734,0.231086 M 39.997807,56.247684 c -0.08265,0.03543 -0.165619,0.07044 -0.248941,0.104955 -0.08332,0.03451 -0.16674,0.06844 -0.250243,0.101814 m -15.515274,-0.0072 c -0.07759,-0.03106 -0.155008,-0.06259 -0.232228,-0.09457 -0.07722,-0.03198 -0.154251,-0.06443 -0.231086,-0.09734 M 12.543984,45.289476 c -0.03543,-0.08265 -0.07044,-0.16562 -0.104955,-0.248941 -0.03451,-0.08332 -0.06844,-0.16674 -0.101814,-0.250243 m 0.0072,-15.51528 c 0.03106,-0.07759 0.06259,-0.155009 0.09458,-0.23223 0.03198,-0.07722 0.06443,-0.15425 0.09734,-0.231085 m 10.96586,-10.97605 c 0.08266,-0.03543 0.16562,-0.07044 0.248942,-0.104955 0.08332,-0.03451 0.16674,-0.06844 0.250242,-0.101814 m 15.515282,0.0072 c 0.07759,0.03106 0.155008,0.06259 0.232228,0.09457 0.07722,0.03198 0.154251,0.06443 0.231085,0.09734 M 50.956035,28.79387 c 0.03543,0.08265 0.07044,0.16562 0.104955,0.248942 0.03451,0.08332 0.06844,0.16674 0.101814,0.250243"
     sodipodi:nodetypes="csccsccsccsccsccsccsccsc" />
  <path
     id="path14167"
     style="fill:none;fill-opacity:0.296118;stroke:#000000;stroke-width:1.05833333;stroke-linecap:butt;stroke-linejoin:bevel;stroke-dasharray:none;stroke-opacity:0.59895766"
     d="m 48.064986,50.1076 c -0.05225,0.06523 -0.104895,0.130163 -0.157922,0.194771 -0.05302,0.06461 -0.106438,0.128902 -0.160232,0.192874 m -13.68011,7.319726 c -0.08938,0.0099 -0.178936,0.01933 -0.268689,0.02816 -0.08976,0.0088 -0.17943,0.01709 -0.269024,0.02478 m -14.844943,-4.51126 c -0.06523,-0.05225 -0.130161,-0.104894 -0.194769,-0.15792 -0.06461,-0.05302 -0.128902,-0.106439 -0.192875,-0.160233 m -7.319727,-13.68011 c -0.0099,-0.08938 -0.01933,-0.178938 -0.02816,-0.26869 -0.0088,-0.08976 -0.01709,-0.179429 -0.02478,-0.269023 M 15.43503,23.975732 c 0.05225,-0.06523 0.104895,-0.130162 0.157922,-0.194771 0.05302,-0.06461 0.106438,-0.128901 0.160232,-0.192874 m 13.680109,-7.319726 c 0.08938,-0.0099 0.178937,-0.01933 0.26869,-0.02816 0.08976,-0.0088 0.17943,-0.01709 0.269023,-0.02478 m 14.844945,4.511275 c 0.06523,0.05225 0.130162,0.104895 0.19477,0.157922 0.06461,0.05303 0.128901,0.106438 0.192874,0.160232 m 7.319725,13.680109 c 0.0099,0.08938 0.01933,0.178938 0.02816,0.268691 0.0088,0.08976 0.01709,0.179429 0.02478,0.269023"
     sodipodi:nodetypes="csccsccsccsccsccsccsccsc" />
  <path
     id="path14169"
     style="fill:none;fill-opacity:0.296118;stroke:#000000;stroke-width:1.05833333;stroke-linecap:butt;stroke-linejoin:bevel;stroke-dasharray:none;stroke-opacity:0.59895766"
     d="m 50.299863,46.674943 c -0.03853,0.07417 -0.0775,0.14812 -0.116905,0.221829 -0.0394,0.07371 -0.07925,0.147184 -0.11954,0.220419 m -11.989931,9.8471 c -0.08573,0.02714 -0.17173,0.05386 -0.258038,0.08002 -0.08633,0.02613 -0.172652,0.05176 -0.259026,0.07677 m -15.439698,-1.52955 c -0.07417,-0.03853 -0.148119,-0.0775 -0.221827,-0.116903 -0.07371,-0.0394 -0.147185,-0.07926 -0.22042,-0.119542 m -9.847101,-11.98993 c -0.02714,-0.08573 -0.05386,-0.171732 -0.08002,-0.258039 -0.02613,-0.08631 -0.05175,-0.172651 -0.07677,-0.259025 m 1.529566,-15.439701 c 0.03853,-0.07417 0.0775,-0.14812 0.116905,-0.221829 0.0394,-0.07371 0.07925,-0.147183 0.11954,-0.220419 m 11.98993,-9.8471 c 0.08573,-0.02714 0.171731,-0.05386 0.258039,-0.08002 0.08632,-0.02614 0.172652,-0.05176 0.259025,-0.07677 m 15.439701,1.529564 c 0.07417,0.03853 0.14812,0.0775 0.221828,0.116906 0.07372,0.03941 0.147185,0.07926 0.22042,0.119541 m 9.847098,11.989929 c 0.02714,0.08573 0.05386,0.171732 0.08002,0.25804 0.02613,0.08631 0.05176,0.172651 0.07677,0.259025"
     sodipodi:nodetypes="csccsccsccsccsccsccsccsc" />
  <path
     id="path14171"
     style="fill:none;fill-opacity:0.296118;stroke:#000000;stroke-width:1.05833333;stroke-linecap:butt;stroke-linejoin:bevel;stroke-dasharray:none;stroke-opacity:0.59895766"
     d="m 51.822384,42.872347 c -0.02333,0.08026 -0.04712,0.16039 -0.0714,0.240369 -0.02427,0.07998 -0.04903,0.159814 -0.07426,0.239501 m -9.839306,11.996322 c -0.07879,0.04334 -0.157928,0.08632 -0.237478,0.128807 -0.07957,0.04246 -0.159242,0.08444 -0.23908,0.125812 M 25.91932,57.114027 c -0.08026,-0.02333 -0.160388,-0.04712 -0.240366,-0.0714 -0.07998,-0.02427 -0.159817,-0.04904 -0.239501,-0.07426 M 13.443132,47.129087 c -0.04334,-0.07879 -0.08632,-0.15793 -0.128807,-0.237478 -0.04246,-0.07955 -0.08443,-0.159244 -0.125811,-0.23908 M 11.677645,31.210988 c 0.02333,-0.08026 0.04712,-0.16039 0.0714,-0.24037 0.02427,-0.07998 0.04903,-0.159812 0.07426,-0.2395 m 9.839292,-11.996321 c 0.07879,-0.04334 0.157929,-0.08632 0.237479,-0.128806 0.07956,-0.04247 0.159242,-0.08444 0.239079,-0.125812 m 15.441542,-1.51087 c 0.08026,0.02333 0.160389,0.04712 0.240368,0.0714 0.07999,0.02428 0.159816,0.04904 0.239501,0.07426 m 11.996321,9.83931 c 0.04334,0.07879 0.08632,0.157931 0.128806,0.23748 0.04246,0.07955 0.08444,0.159241 0.125812,0.239079"
     sodipodi:nodetypes="csccsccsccsccsccsccsccsc" />
  <path
     id="path14173"
     style="fill:none;fill-opacity:0.296118;stroke:#000000;stroke-width:1.05833333;stroke-linecap:butt;stroke-linejoin:bevel;stroke-dasharray:none;stroke-opacity:0.59895766"
     d="m 52.574083,38.845841 c -0.0072,0.08327 -0.01494,0.1665 -0.02316,0.249679 -0.0082,0.08317 -0.01693,0.166307 -0.02613,0.249385 m -7.310827,13.684858 c -0.06882,0.05787 -0.138061,0.115462 -0.207797,0.172647 -0.06977,0.05716 -0.139716,0.113878 -0.209954,0.170022 m -14.850393,4.493296 c -0.08327,-0.0072 -0.166498,-0.01494 -0.249676,-0.02316 -0.08317,-0.0082 -0.166311,-0.01693 -0.249385,-0.02613 M 15.761912,50.505639 c -0.05787,-0.06882 -0.115463,-0.138063 -0.172647,-0.207797 -0.05716,-0.06975 -0.113868,-0.13972 -0.170022,-0.209954 M 10.925946,35.237494 c 0.0072,-0.08327 0.01494,-0.1665 0.02316,-0.24968 0.0082,-0.08317 0.01692,-0.166304 0.02613,-0.249384 m 7.310822,-13.684855 c 0.06882,-0.05787 0.138062,-0.115463 0.207799,-0.172647 0.06975,-0.05717 0.139716,-0.113877 0.209952,-0.170022 M 33.554193,16.21761 c 0.08327,0.0072 0.166499,0.01494 0.249678,0.02316 0.08319,0.0082 0.16631,0.01693 0.249385,0.02613 m 13.684858,7.31084 c 0.05787,0.06882 0.115464,0.138064 0.172647,0.2078 0.05716,0.06975 0.113877,0.139715 0.170022,0.209952"
     sodipodi:nodetypes="csccsccsccsccsccsccsccsc" />
  <path
     id="path14175"
     style="fill:none;fill-opacity:0.296118;stroke:#000000;stroke-width:1.05833333;stroke-linecap:square;stroke-linejoin:bevel;stroke-dasharray:none;stroke-opacity:0.39895126"
     d="m 35.597329,16.496759 c 0.08217,0.01535 0.164213,0.03131 0.246182,0.04767 0.08199,0.01634 0.163832,0.03323 0.245592,0.05061 m 12.89787,8.623688 c 0.05076,0.0742 0.101285,0.148771 0.151369,0.223767 0.05005,0.07504 0.09956,0.15025 0.148458,0.225718 m 3.008093,15.220885 c -0.01534,0.08216 -0.03132,0.164211 -0.04767,0.246177 -0.01635,0.08199 -0.03323,0.163836 -0.05061,0.245594 m -8.623653,12.897851 c -0.07421,0.05076 -0.148775,0.101285 -0.22377,0.151367 -0.07501,0.05005 -0.150252,0.09955 -0.225718,0.148459 m -15.220861,3.008101 c -0.08217,-0.01535 -0.164215,-0.03132 -0.246181,-0.04767 -0.08199,-0.01635 -0.163829,-0.03323 -0.24559,-0.0506 M 14.512983,48.864652 c -0.05076,-0.07421 -0.101284,-0.148773 -0.151281,-0.223831 -0.05005,-0.07503 -0.09955,-0.150257 -0.148544,-0.225658 M 11.205055,33.194335 c 0.01535,-0.08217 0.03131,-0.164211 0.04767,-0.246181 0.01635,-0.082 0.03324,-0.163837 0.05061,-0.245593 m 8.623736,-12.897859 c 0.0742,-0.05075 0.148775,-0.101285 0.223833,-0.151283 0.07501,-0.05005 0.150245,-0.09956 0.225657,-0.148544"
     sodipodi:nodetypes="csccsccsccsccsccsccsccsc" />
  <path
     id="path14177"
     style="fill:none;fill-opacity:0.296118;stroke:#000000;stroke-width:1.05833333;stroke-linecap:square;stroke-linejoin:bevel;stroke-dasharray:none;stroke-opacity:0.40216497"
     d="m 27.445113,16.587729 c 0.08178,-0.0173 0.163703,-0.03387 0.245683,-0.05017 0.082,-0.01631 0.164084,-0.03197 0.246264,-0.04724 m 15.215797,3.033573 c 0.07529,0.04914 0.150493,0.09871 0.225458,0.148838 0.07495,0.05018 0.149465,0.100735 0.223514,0.151755 m 8.602094,12.912319 c 0.0173,0.08178 0.03387,0.163702 0.05017,0.245679 0.01631,0.082 0.03197,0.164086 0.04724,0.246264 m -3.033545,15.215766 c -0.04915,0.07529 -0.09871,0.150497 -0.148844,0.225458 -0.05015,0.07494 -0.100739,0.149457 -0.151755,0.223516 m -12.912358,8.602191 c -0.08178,0.0173 -0.163708,0.03387 -0.245683,0.05017 -0.082,0.01631 -0.164081,0.03197 -0.24626,0.04724 M 20.347087,54.559477 c -0.07529,-0.04915 -0.150493,-0.09871 -0.225402,-0.148931 -0.07495,-0.05017 -0.149458,-0.100745 -0.22357,-0.151669 M 11.296019,41.346543 c -0.0173,-0.08178 -0.03387,-0.163701 -0.05017,-0.245683 -0.01631,-0.08201 -0.03196,-0.164091 -0.04724,-0.246264 m 3.033703,-15.21582 c 0.04914,-0.07528 0.09871,-0.150496 0.148933,-0.225405 0.05016,-0.07495 0.100729,-0.149463 0.151666,-0.22357"
     sodipodi:nodetypes="csccsccsccsccsccsccsccsc" />
  <path
     id="path29285"
     style="fill:none;fill-opacity:0.296118;stroke:#000000;stroke-width:2.6457;stroke-linecap:butt;stroke-linejoin:bevel;stroke-dasharray:none;stroke-opacity:1"
     d="m 7.2812448,12.866438 c 0.048335,-0.04892 0.096817,-0.09768 0.1454563,-0.146315 0.048625,-0.04862 0.097402,-0.0971 0.1463215,-0.145438 M 31.525891,2.6465396 c 0.0741,-4.95e-4 0.148251,-7.7e-4 0.222454,-7.7e-4 0.0742,0 0.148346,2.362e-4 0.222442,7.118e-4 m 23.952891,9.9282256 c 0.04891,0.04834 0.09768,0.09682 0.146313,0.145445 0.04861,0.04861 0.09709,0.09738 0.145434,0.146308"
     sodipodi:nodetypes="csccsccsc" />
  <path
     id="path29291"
     style="fill:none;fill-opacity:0.296118;stroke:#000000;stroke-width:1.98332;stroke-linecap:butt;stroke-linejoin:bevel;stroke-dasharray:none;stroke-opacity:0.80437"
     d="m 28.801578,2.4400496 c 0.07454,-0.00637 0.149157,-0.012519 0.223843,-0.018397 0.07468,-0.00588 0.149331,-0.011513 0.223948,-0.016904 m 24.895428,8.0955032 c 0.05306,0.04478 0.105986,0.08971 0.158787,0.134803 0.05278,0.04507 0.105441,0.09033 0.157971,0.13574"
     sodipodi:nodetypes="csccsc" />
  <path
     id="path29293"
     style="fill:none;fill-opacity:0.296118;stroke:#000000;stroke-width:1.98332;stroke-linecap:butt;stroke-linejoin:bevel;stroke-dasharray:none;stroke-opacity:0.80437"
     d="m 26.09585,2.7780486 c 0.07381,-0.012197 0.147714,-0.024183 0.221709,-0.035902 0.07399,-0.011719 0.147967,-0.023194 0.221931,-0.034423 m 25.45385,6.1172737 c 0.05641,0.040476 0.112698,0.081119 0.168874,0.1219295 0.05615,0.040794 0.112203,0.081776 0.168134,0.1229277"
     sodipodi:nodetypes="csccsc" />
  <path
     id="path29295"
     style="fill:none;fill-opacity:0.296118;stroke:#000000;stroke-width:1.98332;stroke-linecap:butt;stroke-linejoin:bevel;stroke-dasharray:none;stroke-opacity:0.80437"
     d="m 23.424983,3.3272924 c 0.07263,-0.01795 0.145362,-0.035698 0.218209,-0.053187 0.07284,-0.017487 0.145691,-0.034732 0.218546,-0.051729 m 25.85534,4.10133 c 0.05941,0.035925 0.118715,0.072027 0.17792,0.1083041 0.05918,0.036262 0.118273,0.07272 0.177261,0.1093571"
     sodipodi:nodetypes="csccsc" />
  <path
     id="path29297"
     style="fill:none;fill-opacity:0.296118;stroke:#000000;stroke-width:1.98332;stroke-linecap:butt;stroke-linejoin:bevel;stroke-dasharray:none;stroke-opacity:0.80437"
     d="m 20.805445,4.0843952 c 0.07099,-0.023593 0.142113,-0.046993 0.213364,-0.070143 0.07124,-0.023148 0.142517,-0.046056 0.213813,-0.068716 m 26.097424,2.0601004 c 0.06205,0.031153 0.124,0.062491 0.185869,0.094011 0.06184,0.031507 0.123614,0.063217 0.185294,0.095112"
     sodipodi:nodetypes="csccsc" />
  <path
     id="path29299"
     style="fill:none;fill-opacity:0.296118;stroke:#000000;stroke-width:1.98332;stroke-linecap:butt;stroke-linejoin:bevel;stroke-dasharray:none;stroke-opacity:0.80437"
     d="m 18.253386,5.0446888 c 0.06893,-0.029091 0.137988,-0.057998 0.207203,-0.086668 0.06921,-0.028667 0.138464,-0.057095 0.207762,-0.08528 m 26.178609,0.00617 c 0.0643,0.026189 0.128521,0.052569 0.192672,0.079138 0.06413,0.026558 0.128192,0.053323 0.192185,0.080281"
     sodipodi:nodetypes="csccsc" />
  <path
     id="path29301"
     style="fill:none;fill-opacity:0.296118;stroke:#000000;stroke-width:1.98332;stroke-linecap:butt;stroke-linejoin:bevel;stroke-dasharray:none;stroke-opacity:0.80437"
     d="m 15.784541,6.2022524 c 0.06643,-0.034409 0.133012,-0.068646 0.199764,-0.1026572 0.06674,-0.034008 0.133557,-0.067783 0.200431,-0.101318 M 42.283128,3.9504776 c 0.06616,0.021063 0.13225,0.042323 0.198288,0.063777 0.06601,0.021445 0.131981,0.0431 0.197892,0.064954"
     sodipodi:nodetypes="csccsc" />
  <path
     id="path29303"
     style="fill:none;fill-opacity:0.296118;stroke:#000000;stroke-width:1.98332;stroke-linecap:butt;stroke-linejoin:bevel;stroke-dasharray:none;stroke-opacity:0.80437"
     d="m 13.414118,7.5499614 c 0.06353,-0.039515 0.127217,-0.07887 0.191094,-0.118014 0.06387,-0.03914 0.127827,-0.078053 0.191864,-0.1167313 M 39.654347,3.2260728 c 0.06761,0.015808 0.135162,0.031817 0.20268,0.048023 0.06749,0.016199 0.134956,0.032613 0.202378,0.049228"
     sodipodi:nodetypes="csccsc" />
  <path
     id="path29305"
     style="fill:none;fill-opacity:0.296118;stroke:#000000;stroke-width:1.98332;stroke-linecap:butt;stroke-linejoin:bevel;stroke-dasharray:none;stroke-opacity:0.80437"
     d="m 11.156743,9.0794975 c 0.06023,-0.044377 0.120637,-0.088608 0.181246,-0.1326434 0.0606,-0.044031 0.121309,-0.087841 0.182113,-0.1314248 M 36.976834,2.7101531 c 0.06864,0.010454 0.137242,0.021114 0.205823,0.031973 0.06855,0.010854 0.137099,0.021923 0.205617,0.033197"
     sodipodi:nodetypes="csccsc" />
  <path
     id="path29307"
     style="fill:none;fill-opacity:0.296118;stroke:#000000;stroke-width:1.98332;stroke-linecap:butt;stroke-linejoin:bevel;stroke-dasharray:none;stroke-opacity:0.80437"
     d="m 9.0263336,10.781431 c 0.056562,-0.04897 0.113312,-0.0978 0.1702797,-0.146456 0.056962,-0.04865 0.1140429,-0.09709 0.1712404,-0.145308 M 34.267096,2.4058998 c 0.06925,0.00504 0.138475,0.010281 0.207697,0.015725 0.06919,0.00544 0.138396,0.011099 0.207588,0.016963"
     sodipodi:nodetypes="csccsc" />
  <path
     id="path29311"
     style="fill:none;fill-opacity:0.296118;stroke:#000000;stroke-width:1.05833;stroke-linecap:square;stroke-linejoin:bevel;stroke-dasharray:none;stroke-opacity:1"
     d="M 5.9310474,11.222683 C 6.034285,11.119447 6.1381502,11.016811 6.2426188,10.914803 M 31.278095,0.531147 c 0.157079,-0.001906 0.314387,-0.002922 0.471933,-0.002922 0.157552,0 0.314859,0.001005 0.471931,0.002922 m 25.035477,10.383684 c 0.104457,0.102005 0.208328,0.204639 0.311573,0.30788"
     sodipodi:nodetypes="cccsccc" />
  <path
     id="path29313"
     style="fill:none;fill-opacity:0.296118;stroke:#000000;stroke-width:1.05833;stroke-linecap:square;stroke-linejoin:bevel;stroke-dasharray:none;stroke-opacity:1"
     d="m 17.34205,3.4909348 c 0.144393,-0.061872 0.289338,-0.1230102 0.434891,-0.1833005 0.145559,-0.060293 0.291276,-0.1195628 0.437126,-0.1779006 m 27.103428,0.012611 c 0.135542,0.054266 0.270782,0.1093381 0.405677,0.1652102 0.134887,0.055872 0.269459,0.1125573 0.403679,0.1700368"
     sodipodi:nodetypes="csccsc" />
  <path
     id="path29315"
     style="fill:none;fill-opacity:0.296118;stroke:#000000;stroke-width:1.05833;stroke-linecap:square;stroke-linejoin:bevel;stroke-dasharray:none;stroke-opacity:0.40421"
     d="m 11.07347,6.9464599 c 0.129548,-0.088853 0.259781,-0.1770937 0.390775,-0.2646215 0.131,-0.087532 0.262354,-0.1740906 0.39402,-0.2597613 M 38.443369,1.1468292 c 0.143524,0.02678 0.286909,0.05441 0.430113,0.082892 0.143195,0.028483 0.28624,0.057826 0.429094,0.088016"
     sodipodi:nodetypes="csccsc" />
  <path
     id="path29317"
     style="fill:none;fill-opacity:0.296118;stroke:#000000;stroke-width:1.05833;stroke-linecap:square;stroke-linejoin:bevel;stroke-dasharray:none;stroke-opacity:0.404052"
     d="m 24.197507,1.3177236 c 0.142847,-0.030183 0.285891,-0.059527 0.429094,-0.088015 0.143195,-0.028484 0.286581,-0.056115 0.430113,-0.082891 m 26.585087,5.2752702 c 0.131664,0.085688 0.263014,0.1722524 0.39401,0.2597812 0.130997,0.087531 0.261241,0.1757565 0.390786,0.2646036"
     sodipodi:nodetypes="csccsc" />
  <path
     id="path29348"
     style="fill:none;fill-opacity:0.296118;stroke:#000000;stroke-width:1.05833;stroke-linecap:butt;stroke-linejoin:bevel;stroke-dasharray:none;stroke-opacity:0.597245"
     d="M 14.152604,5.0483587 C 14.280539,4.9780112 14.408907,4.9084049 14.537672,4.8395742 14.666433,4.77075 14.795624,4.7026855 14.925205,4.6353966 M 41.896876,1.9662722 c 0.150869,0.04378 0.301691,0.088485 0.452452,0.1342247 0.150774,0.045728 0.301013,0.092351 0.450768,0.1397748"
     sodipodi:nodetypes="csccsc" />
  <path
     id="path29354"
     style="fill:none;fill-opacity:0.296118;stroke:#000000;stroke-width:1.05833;stroke-linecap:butt;stroke-linejoin:bevel;stroke-dasharray:none;stroke-opacity:0.599849"
     d="M 8.2491476,9.0961846 C 8.3609005,9.0022294 8.4732222,8.9089177 8.5860854,8.8162887 8.6989453,8.7236665 8.8123748,8.6317063 8.926339,8.5404304 M 34.859036,0.66068048 c 0.156512,0.0135052 0.313157,0.0279278 0.469944,0.0433763 0.156799,0.0154344 0.313246,0.0318519 0.469376,0.0491488"
     sodipodi:nodetypes="csccsc" />
  <path
     id="path29356"
     style="fill:none;fill-opacity:0.296118;stroke:#000000;stroke-width:1.05833;stroke-linecap:butt;stroke-linejoin:bevel;stroke-dasharray:none;stroke-opacity:0.600216"
     d="m 27.701712,0.75321002 c 0.156136,-0.0172933 0.312586,-0.0337232 0.469374,-0.0491655 0.156793,-0.0154428 0.313441,-0.0298614 0.469945,-0.0433494 M 54.573734,8.540473 c 0.113952,0.091275 0.227383,0.1832339 0.34025,0.275858 0.11286,0.092622 0.225183,0.1859306 0.336938,0.2798971"
     sodipodi:nodetypes="csccsc" />
  <path
     id="path29358"
     style="fill:none;fill-opacity:0.296118;stroke:#000000;stroke-width:1.05833;stroke-linecap:butt;stroke-linejoin:bevel;stroke-dasharray:none;stroke-opacity:0.598616"
     d="m 20.699973,2.2402664 c 0.149763,-0.047422 0.300001,-0.094058 0.450764,-0.1397917 0.150768,-0.045735 0.301593,-0.090437 0.452458,-0.1341979 m 26.971682,2.6691507 c 0.129569,0.06729 0.258761,0.135353 0.387529,0.2041781 0.128761,0.068825 0.25713,0.138427 0.385069,0.2087857"
     sodipodi:nodetypes="csccsc" />
</svg>
