<?xml version="1.0" encoding="UTF-8" standalone="no"?>
<!-- Created with Inkscape (http://www.inkscape.org/) -->

<svg
   width="30"
   height="30"
   viewBox="0 0 7.9374995 7.9375"
   version="1.1"
   id="svg27135"
   inkscape:version="1.2.2 (b0a8486541, 2022-12-01)"
   sodipodi:docname="icon_motorB_u.svg"
   xmlns:inkscape="http://www.inkscape.org/namespaces/inkscape"
   xmlns:sodipodi="http://sodipodi.sourceforge.net/DTD/sodipodi-0.dtd"
   xmlns="http://www.w3.org/2000/svg"
   xmlns:svg="http://www.w3.org/2000/svg">
  <sodipodi:namedview
     id="namedview27137"
     pagecolor="#ffffff"
     bordercolor="#666666"
     borderopacity="1.0"
     inkscape:showpageshadow="2"
     inkscape:pageopacity="0.0"
     inkscape:pagecheckerboard="0"
     inkscape:deskcolor="#d1d1d1"
     inkscape:document-units="mm"
     showgrid="false"
     showguides="true"
     inkscape:zoom="12.1156"
     inkscape:cx="30.291525"
     inkscape:cy="30.621678"
     inkscape:window-width="1920"
     inkscape:window-height="1029"
     inkscape:window-x="0"
     inkscape:window-y="27"
     inkscape:window-maximized="1"
     inkscape:current-layer="g27710" />
  <defs
     id="defs27132">
    <inkscape:path-effect
       effect="powermask"
       id="path-effect27712"
       is_visible="true"
       lpeversion="1"
       uri="#mask-powermask-path-effect27712"
       invert="false"
       hide_mask="false"
       background="true"
       background_color="#ffffffff" />
    <filter
       id="mask-powermask-path-effect27360_inverse"
       inkscape:label="filtermask-powermask-path-effect27360"
       style="color-interpolation-filters:sRGB"
       height="100"
       width="100"
       x="-50"
       y="-50">
      <feColorMatrix
         id="mask-powermask-path-effect27360_primitive1"
         values="1"
         type="saturate"
         result="fbSourceGraphic" />
      <feColorMatrix
         id="mask-powermask-path-effect27360_primitive2"
         values="-1 0 0 0 1 0 -1 0 0 1 0 0 -1 0 1 0 0 0 1 0 "
         in="fbSourceGraphic" />
    </filter>
    <filter
       id="mask-powermask-path-effect27365_inverse"
       inkscape:label="filtermask-powermask-path-effect27365"
       style="color-interpolation-filters:sRGB"
       height="100"
       width="100"
       x="-50"
       y="-50">
      <feColorMatrix
         id="mask-powermask-path-effect27365_primitive1"
         values="1"
         type="saturate"
         result="fbSourceGraphic" />
      <feColorMatrix
         id="mask-powermask-path-effect27365_primitive2"
         values="-1 0 0 0 1 0 -1 0 0 1 0 0 -1 0 1 0 0 0 1 0 "
         in="fbSourceGraphic" />
    </filter>
    <filter
       id="mask-powermask-path-effect27370_inverse"
       inkscape:label="filtermask-powermask-path-effect27370"
       style="color-interpolation-filters:sRGB"
       height="100"
       width="100"
       x="-50"
       y="-50">
      <feColorMatrix
         id="mask-powermask-path-effect27370_primitive1"
         values="1"
         type="saturate"
         result="fbSourceGraphic" />
      <feColorMatrix
         id="mask-powermask-path-effect27370_primitive2"
         values="-1 0 0 0 1 0 -1 0 0 1 0 0 -1 0 1 0 0 0 1 0 "
         in="fbSourceGraphic" />
    </filter>
    <filter
       id="mask-powermask-path-effect27375_inverse"
       inkscape:label="filtermask-powermask-path-effect27375"
       style="color-interpolation-filters:sRGB"
       height="100"
       width="100"
       x="-50"
       y="-50">
      <feColorMatrix
         id="mask-powermask-path-effect27375_primitive1"
         values="1"
         type="saturate"
         result="fbSourceGraphic" />
      <feColorMatrix
         id="mask-powermask-path-effect27375_primitive2"
         values="-1 0 0 0 1 0 -1 0 0 1 0 0 -1 0 1 0 0 0 1 0 "
         in="fbSourceGraphic" />
    </filter>
    <filter
       id="mask-powermask-path-effect27380_inverse"
       inkscape:label="filtermask-powermask-path-effect27380"
       style="color-interpolation-filters:sRGB"
       height="100"
       width="100"
       x="-50"
       y="-50">
      <feColorMatrix
         id="mask-powermask-path-effect27380_primitive1"
         values="1"
         type="saturate"
         result="fbSourceGraphic" />
      <feColorMatrix
         id="mask-powermask-path-effect27380_primitive2"
         values="-1 0 0 0 1 0 -1 0 0 1 0 0 -1 0 1 0 0 0 1 0 "
         in="fbSourceGraphic" />
    </filter>
    <filter
       id="mask-powermask-path-effect27446_inverse"
       inkscape:label="filtermask-powermask-path-effect27446"
       style="color-interpolation-filters:sRGB"
       height="100"
       width="100"
       x="-50"
       y="-50">
      <feColorMatrix
         id="mask-powermask-path-effect27446_primitive1"
         values="1"
         type="saturate"
         result="fbSourceGraphic" />
      <feColorMatrix
         id="mask-powermask-path-effect27446_primitive2"
         values="-1 0 0 0 1 0 -1 0 0 1 0 0 -1 0 1 0 0 0 1 0 "
         in="fbSourceGraphic" />
    </filter>
    <filter
       id="mask-powermask-path-effect27451_inverse"
       inkscape:label="filtermask-powermask-path-effect27451"
       style="color-interpolation-filters:sRGB"
       height="100"
       width="100"
       x="-50"
       y="-50">
      <feColorMatrix
         id="mask-powermask-path-effect27451_primitive1"
         values="1"
         type="saturate"
         result="fbSourceGraphic" />
      <feColorMatrix
         id="mask-powermask-path-effect27451_primitive2"
         values="-1 0 0 0 1 0 -1 0 0 1 0 0 -1 0 1 0 0 0 1 0 "
         in="fbSourceGraphic" />
    </filter>
    <filter
       id="mask-powermask-path-effect27456_inverse"
       inkscape:label="filtermask-powermask-path-effect27456"
       style="color-interpolation-filters:sRGB"
       height="100"
       width="100"
       x="-50"
       y="-50">
      <feColorMatrix
         id="mask-powermask-path-effect27456_primitive1"
         values="1"
         type="saturate"
         result="fbSourceGraphic" />
      <feColorMatrix
         id="mask-powermask-path-effect27456_primitive2"
         values="-1 0 0 0 1 0 -1 0 0 1 0 0 -1 0 1 0 0 0 1 0 "
         in="fbSourceGraphic" />
    </filter>
    <filter
       id="mask-powermask-path-effect27461_inverse"
       inkscape:label="filtermask-powermask-path-effect27461"
       style="color-interpolation-filters:sRGB"
       height="100"
       width="100"
       x="-50"
       y="-50">
      <feColorMatrix
         id="mask-powermask-path-effect27461_primitive1"
         values="1"
         type="saturate"
         result="fbSourceGraphic" />
      <feColorMatrix
         id="mask-powermask-path-effect27461_primitive2"
         values="-1 0 0 0 1 0 -1 0 0 1 0 0 -1 0 1 0 0 0 1 0 "
         in="fbSourceGraphic" />
    </filter>
    <filter
       id="mask-powermask-path-effect27584_inverse"
       inkscape:label="filtermask-powermask-path-effect27584"
       style="color-interpolation-filters:sRGB"
       height="100"
       width="100"
       x="-50"
       y="-50">
      <feColorMatrix
         id="mask-powermask-path-effect27584_primitive1"
         values="1"
         type="saturate"
         result="fbSourceGraphic" />
      <feColorMatrix
         id="mask-powermask-path-effect27584_primitive2"
         values="-1 0 0 0 1 0 -1 0 0 1 0 0 -1 0 1 0 0 0 1 0 "
         in="fbSourceGraphic" />
    </filter>
  </defs>
  <g
     inkscape:label="Layer 1"
     inkscape:groupmode="layer"
     id="layer1">
    <rect
       style="fill:#000000;font-weight:bold;font-size:3.47765px;line-height:1.25;-inkscape-font-specification:'sans-serif Bold';stroke-width:0.264583;fill-opacity:0.3;stroke:none"
       id="rect377"
       width="7.9375"
       height="7.9375"
       x="0"
       y="0" />
    <g
       id="g27710"
       style="fill:#ff0000">
      <path
         d="m 4.0492755,3.6742874 q 0.1545245,0 0.2343338,-0.067923 0.079809,-0.067923 0.079809,-0.2003724 0,-0.1307515 -0.079809,-0.1986743 Q 4.2038,3.1376969 4.0492755,3.1376969 H 3.6875863 v 0.5365905 z m 0.022075,1.1088405 q 0.1969763,0 0.2954644,-0.083206 0.1001862,-0.083206 0.1001862,-0.2513145 0,-0.1647129 -0.098488,-0.2462204 Q 4.2700248,4.119182 4.0713504,4.119182 H 3.6875863 V 4.7831279 Z M 4.6792599,3.8712636 q 0.2105609,0.061131 0.3260297,0.2258435 0.1154689,0.1647129 0.1154689,0.404141 0,0.3667834 -0.2479184,0.5467789 Q 4.6249217,5.2280226 4.1188964,5.2280226 H 3.0338289 V 2.6928022 h 0.9814852 q 0.5281001,0 0.764132,0.1596187 0.23773,0.1596187 0.23773,0.5111194 0,0.1850898 -0.086602,0.3158413 -0.086602,0.1290534 -0.2513146,0.191882 z"
         id="path28252"
         style="fill:#ff0000;font-weight:bold;font-size:3.47765px;line-height:1.25;-inkscape-font-specification:'sans-serif Bold';stroke-width:0.217352" />
      <path
         d="m 4.0757646,0.66992574 c -0.00274,0.00707 -0.050904,0.16697033 -0.1045768,0.35799586 -0.055043,0.1910255 -0.1087065,0.3608258 -0.1197151,0.3778059 -0.013755,0.02264 -0.03303,0.032546 -0.064679,0.032546 -0.049534,0 -0.3192377,0.04811 -0.3894145,0.069335 -0.023392,0.00708 -0.049534,0.00849 -0.056412,0.00283 C 3.3340686,1.5061881 3.239139,1.371767 3.1318101,1.2118716 3.0231046,1.0519763 2.9254066,0.91047587 2.9130215,0.8977409 2.8910085,0.87651629 2.8744935,0.8807606 2.6625849,0.97981116 2.5373667,1.0392407 2.4300367,1.0915965 2.4245325,1.0986717 c -0.0069,0.00566 0.028901,0.1768754 0.078435,0.3792208 0.049534,0.2023456 0.088062,0.376391 0.082564,0.387711 -0.00416,0.00991 -0.048155,0.04811 -0.099079,0.084901 -0.050904,0.038206 -0.1375972,0.1089564 -0.1926378,0.1598964 -0.083933,0.077826 -0.1045788,0.089145 -0.1307225,0.07924 C 2.1465772,2.1825599 1.9883356,2.1089843 1.8122045,2.0269145 1.6360734,1.9448442 1.4874626,1.876924 1.4819583,1.876924 c -0.00548,0 -0.079805,0.097636 -0.163747,0.2164957 L 1.1627209,2.3085 1.4310458,2.5844255 c 0.1472342,0.1514053 0.2683248,0.2830007 0.2683248,0.2914906 0,0.00849 -0.019264,0.05943 -0.042656,0.1132002 -0.024772,0.05377 -0.06467,0.1570653 -0.089442,0.2306457 -0.024772,0.072164 -0.048165,0.1344252 -0.050914,0.1372552 -0.00274,0.00282 -0.1802598,0.021226 -0.3962953,0.04245 -0.21465982,0.019808 -0.39079093,0.03679 -0.3921675,0.038205 -0.00142,0.00142 -0.0123861,0.1018814 -0.0261417,0.2221565 C 0.689368,3.7801039 0.6742328,3.8961343 0.667355,3.9173594 c -0.006898,0.021226 -0.008217,0.042449 -0.00142,0.04528 0.005478,0.00425 0.17062686,0.049526 0.3660228,0.1018804 0.1967716,0.05094 0.3673984,0.09905 0.3797825,0.1061254 0.016515,0.00849 0.024772,0.04245 0.03165,0.1287654 0.00548,0.063675 0.022013,0.1740454 0.035779,0.2433805 0.015135,0.06792 0.023393,0.1301804 0.019264,0.1372549 -0.00416,0.00708 -0.1486108,0.1117857 -0.3219898,0.232061 -0.173379,0.1202752 -0.31786209,0.2249857 -0.32061422,0.2306456 -0.006898,0.01132 0.18301192,0.4485558 0.20365132,0.4683659 0.00822,0.00708 0.1486108,-0.02547 0.3646473,-0.0849 0.1926439,-0.052356 0.3660229,-0.09622 0.3852867,-0.09622 0.026142,0 0.048165,0.01981 0.09495,0.086316 0.034399,0.048111 0.1032022,0.1330101 0.1554917,0.1896102 0.083933,0.09339 0.092191,0.1075409 0.079805,0.1400854 -0.0069,0.01981 -0.085313,0.1782908 -0.17338,0.353751 -0.086693,0.1754607 -0.1568673,0.3254512 -0.1541151,0.3325263 0.00548,0.018394 0.3990473,0.2971505 0.4183112,0.2971505 0.013756,0 0.1802598,-0.1584804 0.5091305,-0.4839311 l 0.068798,-0.069335 0.1389779,0.0566 c 0.077056,0.031129 0.1788843,0.06792 0.227044,0.080655 0.046785,0.014149 0.09495,0.031129 0.1032022,0.03962 0.011006,0.01132 0.024762,0.1415005 0.041287,0.396201 0.022013,0.3579959 0.024762,0.3792212 0.050904,0.390541 0.045406,0.016979 0.4912412,0.046695 0.5036252,0.032546 0.00548,-0.00566 0.056412,-0.1698005 0.1114577,-0.3650709 0.056412,-0.1938556 0.1114586,-0.3636559 0.1238427,-0.3763908 0.013756,-0.01415 0.059171,-0.02547 0.1210906,-0.032546 0.055042,-0.00425 0.1582427,-0.02264 0.2311716,-0.038206 0.071547,-0.015565 0.1389799,-0.02547 0.1486108,-0.021226 0.00964,0.00282 0.1128342,0.1471603 0.2284206,0.3183762 0.1155863,0.17263 0.2132843,0.3127153 0.2187886,0.3127153 0.015135,0 0.4595921,-0.2122502 0.4719762,-0.2249853 C 5.534285,6.8393409 5.498535,6.6667106 5.449,6.4629502 5.399466,6.2591896 5.362307,6.0865592 5.366436,6.0780691 c 0.00548,-0.00708 0.053663,-0.046695 0.1087066,-0.089145 0.055042,-0.041035 0.1389789,-0.111785 0.1871396,-0.1556505 0.046785,-0.043865 0.09495,-0.07924 0.1059534,-0.07924 0.011006,0 0.1706278,0.070749 0.3550143,0.1570653 0.1843875,0.086316 0.3426313,0.1542354 0.3495111,0.1528203 0.00822,-0.00282 0.082554,-0.1004646 0.1664992,-0.2179106 L 6.7906215,5.6337581 6.5222967,5.3578323 C 6.3750604,5.2064267 6.2539698,5.0748312 6.2539698,5.0663416 c 0,-0.00849 0.020644,-0.062261 0.046785,-0.1202754 0.026142,-0.058014 0.0633,-0.1556505 0.083943,-0.2179104 0.022013,-0.062261 0.045406,-0.1202754 0.053663,-0.1301806 0.00964,-0.00991 0.1472352,-0.0283 0.3453834,-0.04528 0.1816343,-0.016979 0.3550133,-0.033961 0.3866623,-0.038205 l 0.056422,-0.00708 0.027521,-0.2575308 C 7.2708552,4.1083845 7.2791126,3.9881091 7.274994,3.9824492 7.2695161,3.9767888 7.1043672,3.9300942 6.9075956,3.8777387 6.710824,3.8267988 6.5429483,3.7786882 6.5346919,3.7716134 6.5264751,3.7645328 6.515428,3.7093537 6.5099197,3.6485083 6.5057606,3.5890787 6.4892762,3.4801228 6.474141,3.4065427 6.4603855,3.3329621 6.4507485,3.2678723 6.4548772,3.2607974 6.4590363,3.2537168 6.603488,3.1518423 6.7741149,3.0343968 6.9461183,2.9169515 7.0906015,2.8164863 7.0974813,2.8122413 7.1126165,2.7966761 6.906214,2.3382151 6.8814458,2.3325551 c -0.012386,-0.00282 -0.185764,0.03962 -0.3866633,0.094805 -0.1995237,0.055186 -0.3660229,0.1004647 -0.368775,0.1004647 -0.00406,0 -0.037148,-0.042449 -0.075686,-0.09622 -0.037106,-0.052355 -0.1100375,-0.1415 -0.1595737,-0.1981 L 5.7999255,2.1316242 5.9719289,1.7778733 C 6.0668789,1.5840179 6.1439314,1.4198775 6.1439314,1.4142176 6.1426126,1.3986524 5.744884,1.1198967 5.722868,1.1198967 c -0.011006,0 -0.1197151,0.099051 -0.2421802,0.2207407 C 5.3568451,1.4609125 5.2302513,1.5840179 5.1986023,1.613733 L 5.1408107,1.666088 5.0197201,1.6165632 C 4.953671,1.5896782 4.8518443,1.5543025 4.7954283,1.5373232 4.7390162,1.5189278 4.6839696,1.4977032 4.6743377,1.4892135 4.6619516,1.4764785 4.6509451,1.3576182 4.6344404,1.0972576 4.6220543,0.89208209 4.6082988,0.71803662 4.6027905,0.71237669 4.5973105,0.70671625 4.4885797,0.69256718 4.3606103,0.68124631 4.0867812,0.65719148 4.0826525,0.65719148 4.0757727,0.66992645 Z M 4.4307799,2.039649 c 0.2683249,0.06226 0.5091295,0.1698003 0.7251649,0.3197908 0.5394029,0.3792209 0.8558885,1.0824774 0.7829586,1.739039 C 5.8838608,4.5838247 5.6967233,4.982856 5.3595972,5.3295316 4.7541463,5.954963 3.8294567,6.1219334 3.0671386,5.7469578 2.5304879,5.4823519 2.1465767,4.9729507 2.0364946,4.3800643 1.9608086,3.9697134 2.0227391,3.5437975 2.2140023,3.1490115 2.4988399,2.5617852 3.053378,2.1429441 3.7014853,2.0254989 3.8487206,1.9986139 4.2945532,2.0071049 4.4307799,2.039649 Z"
         id="path961"
         style="fill:#ff0000;stroke-width:0.00139537" />
    </g>
  </g>
</svg>
